<?xml version="1.0" encoding="UTF-8"?>
<!DOCTYPE svg PUBLIC "-//W3C//DTD SVG 1.1//EN" "http://www.w3.org/Graphics/SVG/1.1/DTD/svg11.dtd">
<!-- Creator: CorelDRAW -->
<svg xmlns="http://www.w3.org/2000/svg" xml:space="preserve" width="128px" height="128px" style="shape-rendering:geometricPrecision; text-rendering:geometricPrecision; image-rendering:optimizeQuality; fill-rule:evenodd; clip-rule:evenodd"
viewBox="0 0 2.90376 2.90376"
 xmlns:xlink="http://www.w3.org/1999/xlink">
 <defs>
  <style type="text/css">
   <![CDATA[
    .str0 {stroke:#AADBC7;stroke-width:0.0544456}
    .fil0 {fill:none}
    .fil2 {fill:none;fill-rule:nonzero}
    .fil1 {fill:#AADBC7}
    .fil3 {fill:#0074C5;fill-rule:nonzero}
   ]]>
  </style>
 </defs>
 <g id="Capa_x0020_1">
  <metadata id="CorelCorpID_0Corel-Layer"/>
  <path class="fil0 str0" d="M1.37993 2.50828c0.583325,0 1.05633,-0.473076 1.05633,-1.0564 0,-0.583325 -0.473005,-1.0564 -1.05633,-1.0564 -0.583325,0 -1.0564,0.473076 -1.0564,1.0564 0,0.583325 0.473076,1.0564 1.0564,1.0564z"/>
  <polygon class="fil1" points="1.21059,0.585111 1.21059,2.37839 1.25046,2.37839 1.25046,0.585111 "/>
  <path class="fil1" d="M1.23053 0.864056l0.896566 0 0 0.0398696 -0.896566 0 0 -0.0398696zm0.916501 0l0 0.0398696 -0.0199348 0 0 -0.0398696 0.0199348 0zm-0.0398696 0l0 -0.139472 0.0398696 0 0 0.139472 -0.0398696 0z"/>
  <polygon class="fil1" points="0.851909,0.883991 0.851909,2.07951 1.01132,2.07951 1.01132,0.883991 "/>
  <polygon class="fil1" points="0.313955,1.46181 0.313955,1.50168 0.931648,1.50168 0.931648,1.46181 "/>
  <polygon class="fil1" points="2.12709,2.09944 1.23053,2.09944 1.23053,2.05957 2.12709,2.05957 "/>
  <polygon class="fil1" points="2.14703,2.07951 2.14703,2.09944 2.12709,2.09944 2.12709,2.07951 "/>
  <polygon class="fil1" points="2.14703,1.46181 2.14703,2.07951 2.10716,2.07951 2.10716,1.46181 "/>
  <polygon class="fil1" points="2.12709,1.46181 2.14703,1.46181 2.14703,1.46181 2.12709,1.46181 "/>
  <polygon class="fil1" points="1.23053,1.46181 2.12709,1.46181 2.12709,1.50168 1.23053,1.50168 "/>
  <polygon class="fil1" points="1.44967,1.36221 1.19066,1.48175 1.44967,1.60129 "/>
  <g>
   <polygon class="fil2 str0" points="1.44967,1.36221 1.19066,1.48175 1.44967,1.60129 "/>
  </g>
  <polygon class="fil1" points="2.10716,2.07951 2.10716,2.19904 2.14703,2.19904 2.14703,2.07951 "/>
  <path class="fil3" d="M0.340964 1.11292l-0.274086 0c0,0.0555888 0.0132899,0.102318 0.0398696,0.140187 0.0265797,0.037869 0.059733,0.0568749 0.0994597,0.0568749 0.0275086,0 0.0562319,-0.0113607 0.0861698,-0.0339392 0.0256509,-0.0189345 0.0424418,-0.0387978 0.0503729,-0.0595901l0.0156477 0.0100746c-0.0140758,0.0415844 -0.0363685,0.0754522 -0.0669495,0.101746 -0.0354396,0.0299379 -0.0751663,0.0449426 -0.119109,0.0449426 -0.0458715,0 -0.0860269,-0.0205064 -0.120538,-0.0614478 -0.0345108,-0.0409414 -0.0518019,-0.0919573 -0.0518019,-0.153048 0,-0.0617336 0.017434,-0.113464 0.0522306,-0.155334 0.034868,-0.0418702 0.0779529,-0.0628053 0.129255,-0.0628053 0.0488724,0 0.0879561,0.0158621 0.117322,0.0476578 0.0134328,0.0152905 0.0237931,0.0332961 0.0311526,0.0540883 0.00735944,0.0207922 0.0110034,0.0442996 0.0110034,0.0705935zm-0.177841 -0.142116c-0.0244362,0 -0.0445854,0.00764525 -0.0604475,0.0229357 -0.0202206,0.0183629 -0.0320815,0.0479436 -0.0357969,0.0888849l0.183343 0c0,-0.0397267 -0.00914572,-0.0693074 -0.0275086,-0.0888849 -0.0152905,-0.0152905 -0.0351538,-0.0229357 -0.0595901,-0.0229357zm0.585683 0.0660206c0,0.0110034 -0.0037869,0.020435 -0.0114321,0.0284375 -0.00764525,0.00793105 -0.0175769,0.0118608 -0.029795,0.0118608 -0.0122181,0 -0.0221498,-0.0040727 -0.029795,-0.012361 -0.00764525,-0.00821685 -0.0115036,-0.0175769 -0.0115036,-0.0279373 0,-0.0195775 -0.00457286,-0.0357254 -0.0137186,-0.0485866 -0.0110034,-0.0146474 -0.0287233,-0.0220069 -0.0531595,-0.0220069 -0.0402983,0 -0.0723798,0.0201492 -0.0962444,0.0605189 -0.0182914,0.0311526 -0.0275086,0.0650918 -0.0275086,0.101746 0,0.0488724 0.0132899,0.0913142 0.0398696,0.127397 0.0265797,0.0360113 0.059733,0.0540883 0.0994597,0.0540883 0.0275086,0 0.0562319,-0.0113607 0.0861698,-0.0339392 0.0256509,-0.0189345 0.0424418,-0.0387978 0.0503729,-0.0595901l0.0128612 0.00735944c-0.0170768,0.0427276 -0.0397267,0.0773099 -0.0678069,0.103532 -0.0336534,0.030581 -0.072094,0.0458715 -0.115465,0.0458715 -0.0458715,0 -0.0860269,-0.0205064 -0.120538,-0.0614478 -0.0345108,-0.0409414 -0.0518019,-0.0919573 -0.0518019,-0.153048 0,-0.0617336 0.0187916,-0.113464 0.0563748,-0.155334 0.0375832,-0.0418702 0.0823114,-0.0628053 0.134256,-0.0628053 0.0476578,0 0.084455,0.00978877 0.110463,0.0293663 0.0259367,0.0195061 0.0389407,0.0417988 0.0389407,0.066878zm0.269441 -0.0962444c0.0586612,0 0.106962,0.0206493 0.144831,0.0618765 0.037869,0.0412272 0.0568035,0.092386 0.0568035,0.153548 0,0.0592328 -0.0202921,0.109963 -0.0609476,0.152119 -0.0405841,0.042156 -0.0905997,0.063234 -0.149833,0.063234 -0.0586612,0 -0.10539,-0.0202921 -0.140258,-0.0609476 -0.0347966,-0.0406556 -0.0522306,-0.0921002 -0.0522306,-0.154405 0,-0.0605189 0.0189345,-0.111535 0.0568035,-0.153119 0.0379404,-0.041513 0.0861698,-0.0623052 0.144831,-0.0623052zm-0.0165052 0.0275086c-0.0354396,0 -0.0620194,0.0143616 -0.0797392,0.0430849 -0.00850266,0.0146474 -0.0149332,0.0303666 -0.0192203,0.0471576 -0.00428705,0.0168624 -0.00643058,0.0371545 -0.00643058,0.0609476 0,0.061162 0.00914572,0.111535 0.0275086,0.151262 0.0220069,0.0488724 0.0571607,0.0733086 0.10539,0.0733086 0.034868,0 0.0617336,-0.0152905 0.0806681,-0.0458 0.0165052,-0.0275086 0.024722,-0.0626624 0.024722,-0.10539 0,-0.061162 -0.00914572,-0.111535 -0.0275086,-0.151262 -0.0219354,-0.0488724 -0.0570893,-0.0733086 -0.10539,-0.0733086zm0.388621 0.0760952l0 0.248363c0,0.0207922 0.00428705,0.0354396 0.0128612,0.0440138 0.00978877,0.00793105 0.0253651,0.0118608 0.0467289,0.0118608l0 0.01379 -0.196133 0 0 -0.01379c0.0220069,0 0.0374403,-0.0040727 0.0463002,-0.012361 0.00885991,-0.00821685 0.0132899,-0.0227214 0.0132899,-0.0435136l0 -0.250221c0,-0.0183629 -0.00250078,-0.0302237 -0.00735944,-0.0357254 -0.003644,-0.00671638 -0.013147,-0.0100746 -0.0284375,-0.0100746l-0.010932 0 -0.0128612 0.00178627 0 -0.0137186 0.136543 -0.0440138 0 0.0770241c0.0207922,-0.0245077 0.0412272,-0.0427991 0.0614478,-0.0550172 0.0237931,-0.0146474 0.0503729,-0.0220069 0.0797392,-0.0220069 0.0696646,0 0.104461,0.0470861 0.104461,0.141116l0 0.210852c0,0.0207922 0.00428705,0.0354396 0.0128612,0.0440138 0.00971732,0.00793105 0.0252936,0.0118608 0.0467289,0.0118608l0 0.01379 -0.196133 0 0 -0.01379c0.0220069,0 0.0373688,-0.0040727 0.0462287,-0.012361 0.00885991,-0.00821685 0.0132899,-0.0227214 0.0132899,-0.0435136l0 -0.241075c0,-0.0189345 -0.00671638,-0.034225 -0.0201492,-0.0458 -0.0134328,-0.0116465 -0.0292949,-0.017434 -0.0476578,-0.017434 -0.0207922,0 -0.0393694,0.00521592 -0.0558746,0.0155763 -0.0152905,0.00857411 -0.0302952,0.0220069 -0.0449426,0.0403698zm0.565534 0.0531595l0 -0.0641629c0,-0.0171482 -0.00307239,-0.0308668 -0.00914572,-0.0412986 -0.0104318,-0.0170768 -0.0275086,-0.0256509 -0.0513732,-0.0256509 -0.0146474,0 -0.0259367,0.000643058 -0.0339392,0.00185772 -0.00793105,0.00121467 -0.0158621,0.00442996 -0.0237931,0.00964587 -0.00793105,0.00514446 -0.0125039,0.0129326 -0.0137186,0.0233644l0.00271513 0.0173626 0.00278659 0.0202206c0,0.0122181 -0.00335819,0.0225785 -0.0100746,0.0311526 -0.00678784,0.00857411 -0.0171482,0.0127897 -0.031224,0.0127897 -0.0256509,0 -0.0384406,-0.011575 -0.0384406,-0.0347966 0,-0.0335819 0.0143616,-0.0598759 0.0430134,-0.0788103 0.0287233,-0.0189345 0.0629482,-0.0284375 0.102675,-0.0284375 0.0476578,0 0.0828116,0.00950297 0.10539,0.0284375 0.0226499,0.0189345 0.0339392,0.0513017 0.0339392,0.0971018l0 0.21814c0,0.0152905 0.00164337,0.0253651 0.00507301,0.0302952 0.00328674,0.00485866 0.00864556,0.00764525 0.016005,0.00821685 0.00735944,0 0.0183629,-0.00457286 0.0330103,-0.0137186l0.0100746 -0.00643058 0.00821685 0.021078 -0.0393694 0.0330103c-0.0147189,0.0110034 -0.0293663,0.0165052 -0.0440138,0.0165052 -0.0220069,0 -0.0387978,-0.00628768 -0.0504443,-0.0187916 -0.011575,-0.0125754 -0.0173626,-0.0288662 -0.0173626,-0.0490868 -0.0220069,0.0214353 -0.042156,0.0372974 -0.0605189,0.0476578 -0.0232215,0.0135042 -0.0448712,0.0202206 -0.0650918,0.0202206 -0.0280802,0 -0.0511588,-0.00843121 -0.0691645,-0.0252222 -0.0180056,-0.016791 -0.0270799,-0.0395838 -0.0270799,-0.0683071 0,-0.0275086 0.00735944,-0.0515875 0.0220069,-0.0723798 0.0147189,-0.0207922 0.0363685,-0.0387978 0.0650918,-0.0540883l0.0650918 -0.0302237 0.0696646 -0.0256509zm0 0.183272l0 -0.160407c-0.0452284,0.0152905 -0.0770241,0.0293663 -0.0953155,0.042156 -0.0293663,0.0202206 -0.0440138,0.0464431 -0.0440138,0.0788103 0,0.0220069 0.00507301,0.040084 0.0151476,0.0540883 0.0100746,0.0140758 0.025508,0.021078 0.0462287,0.021078 0.0128612,0 0.0257223,-0.00300094 0.038512,-0.00914572 0.00735944,-0.003644 0.0139329,-0.00750234 0.0197204,-0.0114321 0.00578752,-0.00400125 0.012361,-0.00900281 0.0197204,-0.0151476zm0.322601 0.0119323c0,0.0189345 0.00578752,0.0332961 0.017434,0.0430849 0.0122181,0.00850266 0.0292949,0.0127897 0.0513017,0.0127897l0 0.01379 -0.214496 0 0 -0.01379c0.0220069,0 0.0390122,-0.00428705 0.050873,-0.0127897 0.0119323,-0.00857411 0.0179342,-0.0229357 0.0179342,-0.0430849l0 -0.253008c0,-0.015219 -0.00250078,-0.0262225 -0.00735944,-0.0329389 -0.00493011,-0.00671638 -0.01379,-0.0100746 -0.0265797,-0.0100746 -0.00735944,0 -0.0189345,0.00178627 -0.034868,0.00543027l0 -0.0137186 0.14576 -0.0476578 0 0.351967zm-0.0440138 -0.555459c0.0122181,0 0.0232215,0.00457286 0.0330103,0.01379 0.00978877,0.00914572 0.0146474,0.020435 0.0146474,0.0338677 0,0.0122181 -0.00457286,0.0232215 -0.0137186,0.0330103 -0.00914572,0.00978877 -0.0205064,0.0146474 -0.0339392,0.0146474 -0.0122181,0 -0.0232215,-0.00457286 -0.0329389,-0.0137186 -0.00978877,-0.00914572 -0.0147189,-0.020435 -0.0147189,-0.0339392 0,-0.0122181 0.00457286,-0.0232215 0.01379,-0.0329389 0.00914572,-0.00978877 0.020435,-0.0147189 0.0338677,-0.0147189zm0.275872 0.307096l0 0.248363c0,0.0207922 0.00428705,0.0354396 0.0128612,0.0440138 0.00978877,0.00793105 0.0253651,0.0118608 0.0467289,0.0118608l0 0.01379 -0.196133 0 0 -0.01379c0.0220069,0 0.0374403,-0.0040727 0.0463002,-0.012361 0.00885991,-0.00821685 0.0132899,-0.0227214 0.0132899,-0.0435136l0 -0.250221c0,-0.0183629 -0.00242933,-0.0302237 -0.00735944,-0.0357254 -0.003644,-0.00671638 -0.013147,-0.0100746 -0.028366,-0.0100746l-0.0110034 0 -0.0128612 0.00178627 0 -0.0137186 0.136543 -0.0440138 0 0.0770241c0.0207922,-0.0245077 0.0412986,-0.0427991 0.0614478,-0.0550172 0.0237931,-0.0146474 0.0503729,-0.0220069 0.0797392,-0.0220069 0.0696646,0 0.104461,0.0470861 0.104461,0.141116l0 0.210852c0,0.0207922 0.00428705,0.0354396 0.0128612,0.0440138 0.00971732,0.00793105 0.0253651,0.0118608 0.0467289,0.0118608l0 0.01379 -0.196133 0 0 -0.01379c0.0220069,0 0.0374403,-0.0040727 0.0463002,-0.012361 0.00885991,-0.00821685 0.0132899,-0.0227214 0.0132899,-0.0435136l0 -0.241075c0,-0.0189345 -0.00671638,-0.034225 -0.0202206,-0.0458 -0.0134328,-0.0116465 -0.0292949,-0.017434 -0.0476578,-0.017434 -0.0207208,0 -0.0393694,0.00521592 -0.0558746,0.0155763 -0.0152905,0.00857411 -0.0302237,0.0220069 -0.0449426,0.0403698z"/>
  <path class="fil3" d="M1.99441 1.62165c0.00400125,0.00078596 0.00743089,-0.00078596 0.0103604,-0.00464431l0.0075738 -0.0125039 0.00914572 0 0 0.0884562 -0.00914572 0c-0.00292949,-0.00721654 -0.00493011,-0.0120752 -0.00600188,-0.0147903 -0.00207208,-0.00500156 -0.00400125,-0.00885991 -0.00557317,-0.0115036 -0.00371545,-0.00721654 -0.00971732,-0.0153619 -0.0181485,-0.0245077 -0.00835976,-0.00921717 -0.0163623,-0.0155048 -0.024079,-0.0189345 -0.00214353,-0.00078596 -0.00564462,-0.00185772 -0.0105747,-0.00321529 -0.00493011,-0.00128612 -0.0107891,-0.00200063 -0.0177198,-0.00200063 -0.0111463,0 -0.0205779,0.00357254 -0.0282946,0.0105747 -0.0077167,0.00707364 -0.011575,0.0168624 -0.011575,0.0293663 0,0.0140758 0.00678784,0.0258652 0.0203635,0.0355111 0.0042156,0.00292949 0.0185772,0.0100031 0.0430134,0.0211495 0.0244362,0.0111463 0.0427991,0.0229357 0.0550172,0.0351538 0.0143616,0.0142902 0.0215067,0.0322958 0.0215067,0.0538025 0,0.0255794 -0.00993168,0.0463002 -0.0298665,0.0623052 -0.0183629,0.0143616 -0.0407985,0.0215782 -0.0673782,0.0215782 -0.00878846,0 -0.0232215,-0.00300094 -0.0434421,-0.00907426 -0.0103604,-0.00300094 -0.0185772,-0.00450141 -0.024722,-0.00450141 -0.00314384,0 -0.00571607,0.00142902 -0.0075738,0.0043585l-0.00278659 0.00921717 -0.00914572 0 0 -0.095244 0.00914572 0c0.00400125,0.0135042 0.0081454,0.0245077 0.012361,0.0330103 0.00185772,0.00400125 0.00428705,0.00821685 0.00721654,0.0125754 0.00292949,0.0043585 0.00635913,0.00857411 0.0103604,0.0125754 0.00850266,0.00900281 0.0161479,0.0156477 0.0230786,0.0199348 0.00635913,0.00314384 0.0148618,0.00478721 0.025508,0.00478721 0.0140758,0 0.0263654,-0.0037869 0.0368687,-0.0113607 0.0105033,-0.0075738 0.0157192,-0.0185058 0.0157192,-0.0325816 0,-0.0140758 -0.00650203,-0.0259367 -0.0195061,-0.0355111 -0.00478721,-0.00342964 -0.018863,-0.0106462 -0.0422275,-0.0215067 -0.0233644,-0.010932 -0.0412272,-0.0226499 -0.0534453,-0.0351538 -0.0142902,-0.0151476 -0.0215067,-0.033439 -0.0215067,-0.0546599 0,-0.0215782 0.0075738,-0.0402269 0.0227214,-0.056089 0.0151476,-0.0158621 0.0333676,-0.0237217 0.0545885,-0.0237217 0.0125039,0 0.0231501,0.00114321 0.0318671,0.00357254l0.0362971 0.0135757zm0.104818 0.206779c0.00793105,0 0.0149332,0.00285804 0.0209351,0.00857411 0.00593042,0.00571607 0.00893136,0.0125754 0.00893136,0.0205064 0,0.0077167 -0.00278659,0.0146474 -0.00835976,0.0207208 -0.00264368,0.00264368 -0.00571607,0.00478721 -0.00914572,0.00635913 -0.00350109,0.00164337 -0.00735944,0.00242933 -0.011575,0.00242933 -0.0077167,0 -0.0145045,-0.00278659 -0.0202921,-0.00835976 -0.00585897,-0.00557317 -0.00878846,-0.0126468 -0.00878846,-0.0211495 0,-0.00821685 0.00264368,-0.0151476 0.00793105,-0.0207208 0.00535882,-0.00557317 0.0120752,-0.00835976 0.0203635,-0.00835976zm0.12411 -0.0262939l-0.0177198 0.0450141 -0.00200063 0.00878846c0,0.00292949 0.00121467,0.00585897 0.00357254,0.00878846 0.00214353,0.00185772 0.00671638,0.00350109 0.01379,0.00493011 0.00700219,0.00150047 0.0134328,0.00221498 0.0192917,0.00221498l0 0.00835976 -0.082883 0 0 -0.00835976 0.0075738 0c0.00321529,0 0.00657348,-0.00107176 0.010146,-0.00321529 0.00357254,-0.00207208 0.00735944,-0.00764525 0.0113607,-0.0167195l0.0956728 -0.243076 0.0147189 0 0.100031 0.243505c0.00342964,0.00871701 0.0075738,0.0144331 0.012361,0.0171482 0.00214353,0.00128612 0.00464431,0.00207208 0.0075738,0.00235788l0.00914572 0 0 0.00835976 -0.132684 0 0 -0.00835976c0.00264368,0 0.00557317,-7.14509e-005 0.00878846,-0.000214353 0.00314384,-0.000142902 0.00728799,-0.000714509 0.0122896,-0.00178627 0.00507301,-0.00107176 0.00900281,-0.00285804 0.0117894,-0.00535882 0.00278659,-0.00250078 0.0042156,-0.00550172 0.0042156,-0.00900281 0,-0.00264368 -0.000714509,-0.00543027 -0.00200063,-0.00835976l-0.0175055 -0.0450141 -0.0875274 0zm0.0810968 -0.0155763l-0.0374403 -0.0963873 -0.0375117 0.0963873 0.074952 0zm0.182128 0.0418702c0.00793105,0 0.0149332,0.00285804 0.0209351,0.00857411 0.00593042,0.00571607 0.00893136,0.0125754 0.00893136,0.0205064 0,0.0077167 -0.00278659,0.0146474 -0.00835976,0.0207208 -0.00264368,0.00264368 -0.00571607,0.00478721 -0.00914572,0.00635913 -0.00350109,0.00164337 -0.00735944,0.00242933 -0.011575,0.00242933 -0.0077167,0 -0.0145045,-0.00278659 -0.0202921,-0.00835976 -0.00585897,-0.00557317 -0.00878846,-0.0126468 -0.00878846,-0.0211495 0,-0.00821685 0.00264368,-0.0151476 0.00793105,-0.0207208 0.00535882,-0.00557317 0.0120752,-0.00835976 0.0203635,-0.00835976zm0.272156 -0.1817c-0.00907426,-0.00986022 -0.0193632,-0.0175055 -0.0308668,-0.0231501 -0.011575,-0.00557317 -0.0237217,-0.00835976 -0.0365114,-0.00835976 -0.0130041,0 -0.0242933,0.00400125 -0.0338677,0.0120038 -0.00957442,0.00793105 -0.0173626,0.0192203 -0.0235073,0.0338677 -0.00371545,0.00978877 -0.00685929,0.022507 -0.00957442,0.0380119 -0.00264368,0.0155763 -0.0039298,0.0311526 -0.0039298,0.0468718 0,0.0180056 0.00107176,0.0338677 0.00314384,0.0473719 0.00214353,0.0135757 0.00550172,0.0259367 0.0102175,0.037083 0.00464431,0.0111463 0.0121467,0.0207208 0.022507,0.0287233 0.00528737,0.0039298 0.0106462,0.00685929 0.0161479,0.00871701 0.00543027,0.00185772 0.0117179,0.00278659 0.018863,0.00278659 0.0080025,0 0.0150761,-0.000500156 0.0213638,-0.00157192 0.00621623,-0.00107176 0.0135757,-0.00307239 0.0220783,-0.00600188 0.0143616,-0.00528737 0.0270084,-0.013147 0.037869,-0.0235073l0.0187201 -0.0202921 0.011575 0.0103604 -0.00557317 0.00714509c-0.00371545,0.00507301 -0.00635913,0.00821685 -0.0080025,0.00957442 -0.0119323,0.0119323 -0.026151,0.0217211 -0.0425847,0.0292949 -0.0165052,0.0075738 -0.0349395,0.0113607 -0.0554459,0.0113607 -0.0190774,0 -0.0367258,-0.00342964 -0.0528022,-0.0103604 -0.0160765,-0.00693074 -0.0303666,-0.0166481 -0.0430134,-0.0292949 -0.0126468,-0.0126468 -0.0226499,-0.0277944 -0.0300808,-0.0456571 -0.00743089,-0.0177913 -0.0111463,-0.0363685 -0.0111463,-0.0557317 0,-0.0197204 0.00350109,-0.0380833 0.0105747,-0.0552315 0.00700219,-0.0171482 0.0170053,-0.0322244 0.0298665,-0.0452284 0.0128612,-0.0130041 0.0273657,-0.0230072 0.0434421,-0.0300808 0.0160765,-0.00707364 0.0337963,-0.0105747 0.0531595,-0.0105747 0.0165052,0 0.0325816,0.00264368 0.0482294,0.0080025 0.00614478,0.00185772 0.0114321,0.00342964 0.0159336,0.00478721 0.00450141,0.00128612 0.00957442,0.00264368 0.0151476,0.00400125 0.00400125,0.00078596 0.00743089,-0.00078596 0.0103604,-0.00457286l0.0075738 -0.0122181 0.00914572 0 0 0.0921002 -0.00914572 0c-0.00185772,-0.00507301 -0.00371545,-0.00943152 -0.00557317,-0.013147 -0.00185772,-0.00371545 -0.00400125,-0.0080025 -0.00635913,-0.0127897 -0.00450141,-0.00793105 -0.0105033,-0.0160765 -0.0179342,-0.0242933zm0.115179 0.1817c0.00793105,0 0.0149332,0.00285804 0.0209351,0.00857411 0.00593042,0.00571607 0.00893136,0.0125754 0.00893136,0.0205064 0,0.0077167 -0.00278659,0.0146474 -0.00835976,0.0207208 -0.00264368,0.00264368 -0.00571607,0.00478721 -0.00914572,0.00635913 -0.00350109,0.00164337 -0.00735944,0.00242933 -0.011575,0.00242933 -0.0077167,0 -0.0145045,-0.00278659 -0.0203635,-0.00835976 -0.00578752,-0.00557317 -0.00871701,-0.0126468 -0.00871701,-0.0211495 0,-0.00821685 0.00264368,-0.0151476 0.00793105,-0.0207208 0.00535882,-0.00557317 0.0120752,-0.00835976 0.0203635,-0.00835976z"/>
 </g>
 <g id="Capa_x0020_1_0">
  <metadata id="CorelCorpID_1Corel-Layer"/>
  <rect class="fil0" x="-2.38325e-005" width="2.90381" height="2.90376"/>
 </g>
</svg>
